<svg xmlns="http://www.w3.org/2000/svg" xmlns:xlink="http://www.w3.org/1999/xlink" width="500" zoomAndPan="magnify" viewBox="0 0 375 374.999991" height="500" preserveAspectRatio="xMidYMid meet" version="1.0"><defs><g/></defs><g fill="rgb(55.288696%, 40.779114%, 32.159424%)" fill-opacity="1"><g transform="translate(16.886722, 201.285779)"><g><path d="M 49.496094 -11.578125 C 51.261719 -14.570312 52.410156 -13.839844 54.902344 -13.265625 C 57.894531 -12.117188 60.691406 -11.042969 63.222656 -10.121094 C 64.027344 -9.816406 64.566406 -9.164062 64.679688 -8.320312 C 65.332031 -3.605469 66.328125 -1.113281 67.863281 -0.613281 C 68.128906 -0.5 68.398438 -0.535156 68.628906 -0.652344 C 68.859375 -0.765625 69.050781 -0.996094 69.128906 -1.226562 C 69.28125 -1.761719 69.011719 -2.339844 68.476562 -2.53125 C 67.824219 -2.761719 67.324219 -4.292969 66.941406 -6.632812 C 66.828125 -7.132812 67.019531 -7.628906 67.402344 -7.9375 C 67.746094 -8.242188 68.285156 -8.359375 68.742188 -8.203125 C 71.351562 -7.246094 74.109375 -6.671875 76.910156 -6.519531 C 77.140625 -6.519531 77.410156 -6.632812 77.601562 -6.824219 C 77.792969 -7.015625 77.867188 -7.285156 77.867188 -7.554688 C 77.867188 -7.820312 77.753906 -8.089844 77.5625 -8.242188 C 77.371094 -8.433594 77.101562 -8.550781 76.832031 -8.550781 C 73.726562 -8.78125 70.699219 -9.507812 67.785156 -10.660156 C 66.941406 -10.925781 66.328125 -11.695312 66.25 -12.574219 C 65.636719 -20.589844 65.5625 -31.363281 65.523438 -37.382812 C 65.484375 -45.777344 65.40625 -49.035156 65.023438 -49.957031 C 64.871094 -50.378906 64.488281 -50.648438 64.066406 -50.609375 C 63.605469 -50.570312 63.261719 -50.265625 63.144531 -49.84375 C 60.882812 -41.675781 58.085938 -33.664062 54.75 -25.878906 C 53.636719 -23.347656 52.5625 -21.046875 51.453125 -18.902344 C 50.953125 -17.90625 49.726562 -17.445312 48.691406 -17.828125 C 36.117188 -22.660156 21.738281 -27.835938 10.734375 -28.679688 C 6.480469 -28.984375 3.71875 -28.21875 2.53125 -26.417969 C 1.535156 -24.882812 1.726562 -22.851562 3.066406 -20.359375 C 7.285156 -12.652344 23.539062 -0.382812 34.929688 -0.382812 C 40.296875 -0.382812 45.242188 -5.097656 49.496094 -11.578125 Z M 8.855469 -26.722656 C 9.394531 -26.722656 9.96875 -26.722656 10.582031 -26.683594 C 21.046875 -25.878906 34.8125 -21.011719 47.003906 -16.332031 C 47.617188 -16.101562 48.117188 -15.566406 48.308594 -14.953125 C 48.539062 -14.300781 48.421875 -13.609375 48.078125 -13.035156 C 43.59375 -6.019531 39.144531 -2.414062 34.929688 -2.414062 C 25.113281 -2.414062 9.164062 -13.378906 4.832031 -21.316406 C 4.179688 -22.542969 3.527344 -24.230469 4.21875 -25.304688 C 4.792969 -26.222656 6.441406 -26.722656 8.855469 -26.722656 Z M 62.722656 -41.445312 C 62.992188 -42.25 63.492188 -42.097656 63.492188 -41.214844 C 63.492188 -39.988281 63.492188 -38.683594 63.53125 -37.382812 C 63.566406 -27.949219 63.722656 -20.433594 64.066406 -14.722656 C 64.144531 -14.070312 63.835938 -13.496094 63.335938 -13.113281 C 62.839844 -12.730469 62.1875 -12.652344 61.613281 -12.882812 C 59.195312 -13.800781 56.589844 -14.800781 53.90625 -15.835938 L 52.410156 -16.410156 C 56.589844 -24.421875 60.039062 -32.820312 62.722656 -41.445312 Z M 62.722656 -41.445312 "/></g></g></g><g fill="rgb(55.288696%, 40.779114%, 32.159424%)" fill-opacity="1"><g transform="translate(96.770574, 201.285779)"><g><path d="M 26.300781 -10.621094 C 26.109375 -10.8125 25.878906 -10.886719 25.609375 -10.886719 C 25.34375 -10.886719 25.074219 -10.8125 24.882812 -10.621094 C 21.203125 -7.132812 16.679688 -4.675781 11.730469 -3.488281 C 11.539062 -3.414062 11.308594 -3.488281 11.195312 -3.640625 C 11.082031 -3.835938 11.042969 -4.027344 11.15625 -4.21875 C 11.847656 -5.558594 11.695312 -7.167969 10.8125 -8.394531 C 10.273438 -9.125 9.585938 -9.738281 8.78125 -10.199219 C 7.707031 -10.925781 6.519531 -11.769531 6.480469 -12.652344 C 6.519531 -13.152344 6.710938 -13.609375 7.054688 -13.992188 L 9.125 -15.949219 C 9.507812 -16.332031 9.546875 -16.945312 9.203125 -17.328125 C 8.855469 -17.75 8.28125 -17.828125 7.820312 -17.484375 C 7.015625 -16.871094 6.25 -16.179688 5.597656 -15.375 L -0.308594 -9.851562 C -0.574219 -9.625 -0.691406 -9.238281 -0.613281 -8.894531 C -0.535156 -8.511719 -0.269531 -8.242188 0.078125 -8.128906 C 0.421875 -8.050781 0.804688 -8.128906 1.074219 -8.394531 L 3.988281 -11.117188 C 4.140625 -11.273438 4.332031 -11.308594 4.523438 -11.308594 C 4.714844 -11.273438 4.871094 -11.15625 4.945312 -11.003906 C 5.675781 -10.007812 6.59375 -9.164062 7.628906 -8.550781 C 8.203125 -8.203125 8.703125 -7.820312 9.125 -7.324219 C 9.507812 -6.902344 9.699219 -6.324219 9.585938 -5.75 C 9.46875 -5.175781 9.125 -4.675781 8.625 -4.410156 C 6.171875 -3.027344 3.066406 -3.679688 1.378906 -5.941406 C 1.113281 -6.363281 0.5 -6.519531 0.0390625 -6.210938 C -0.421875 -5.941406 -0.574219 -5.367188 -0.308594 -4.871094 C 0.957031 -2.683594 3.21875 -1.265625 5.75 -1.074219 C 6.402344 -0.957031 7.015625 -0.921875 7.667969 -0.921875 C 14.148438 -0.921875 22.121094 -4.984375 26.300781 -9.203125 C 26.683594 -9.585938 26.683594 -10.238281 26.300781 -10.621094 Z M 26.300781 -10.621094 "/></g></g></g><g fill="rgb(55.288696%, 40.779114%, 32.159424%)" fill-opacity="1"><g transform="translate(121.533036, 201.285779)"><g><path d="M 30.25 -9.164062 C 29.867188 -9.585938 29.253906 -9.625 28.832031 -9.238281 C 28.753906 -9.203125 20.855469 -2.300781 15.066406 -3.21875 C 13.34375 -3.488281 11.847656 -4.523438 11.003906 -6.058594 C 10.273438 -7.398438 8.933594 -8.242188 7.4375 -8.394531 C 5.558594 -8.511719 3.488281 -7.398438 1.304688 -5.097656 C 1.1875 -4.984375 0.996094 -4.945312 0.84375 -5.023438 C 0.691406 -5.097656 0.613281 -5.253906 0.652344 -5.445312 C 0.765625 -6.171875 1.113281 -8.011719 1.265625 -8.703125 C 1.265625 -8.589844 1.535156 -9.125 1.535156 -9.164062 C 4.792969 -13.609375 14.53125 -27.71875 10.734375 -32.242188 C 10.238281 -32.933594 9.316406 -33.242188 8.472656 -33.011719 C 7.707031 -32.78125 5.367188 -32.050781 1.761719 -19.246094 C 0.882812 -16.140625 0.078125 -12.804688 -0.574219 -9.660156 L -0.84375 -9.316406 C -1.113281 -8.972656 -1.113281 -8.511719 -0.882812 -8.128906 C -1.457031 -5.289062 -1.839844 -2.683594 -2.03125 -0.691406 C -2.070312 -0.230469 -1.800781 0.191406 -1.378906 0.34375 C -0.957031 0.5 -0.460938 0.34375 -0.191406 -0.0390625 C 3.71875 -5.710938 6.210938 -6.441406 7.324219 -6.402344 C 8.128906 -6.324219 8.855469 -5.828125 9.238281 -5.097656 C 10.390625 -3.027344 12.421875 -1.570312 14.800781 -1.226562 C 21.46875 -0.191406 29.789062 -7.4375 30.171875 -7.746094 C 30.558594 -8.128906 30.59375 -8.742188 30.25 -9.164062 Z M 9.046875 -31.09375 C 9.125 -31.09375 9.164062 -30.980469 9.203125 -30.941406 C 11.042969 -28.871094 3.414062 -13.457031 2.453125 -14.070312 C 1.535156 -14.644531 7.4375 -31.09375 9.046875 -31.09375 Z M 9.046875 -31.09375 "/></g></g></g><g fill="rgb(55.288696%, 40.779114%, 32.159424%)" fill-opacity="1"><g transform="translate(150.512014, 201.285779)"><g><path d="M 24.84375 -10.351562 C 24.421875 -10.734375 23.808594 -10.734375 23.425781 -10.3125 C 23.273438 -10.199219 10.851562 2.453125 2.605469 -3.566406 C 0.078125 -5.40625 2.53125 -10.199219 2.570312 -10.238281 C 2.796875 -10.734375 2.605469 -11.308594 2.109375 -11.578125 C 1.609375 -11.808594 1.035156 -11.65625 0.765625 -11.15625 C 0.613281 -10.925781 -2.492188 -4.832031 1.417969 -1.957031 C 3.21875 -0.613281 5.445312 0.113281 7.707031 0.078125 C 15.988281 0.078125 24.382812 -8.472656 24.84375 -8.933594 C 25.035156 -9.125 25.152344 -9.355469 25.152344 -9.625 C 25.113281 -9.890625 25.035156 -10.160156 24.84375 -10.351562 Z M 0.34375 -13.378906 C 0.5 -13.378906 0.652344 -13.417969 0.804688 -13.496094 C 1.726562 -13.957031 2.53125 -14.570312 3.257812 -15.296875 C 3.640625 -15.71875 3.605469 -16.332031 3.21875 -16.714844 C 2.796875 -17.101562 2.183594 -17.101562 1.800781 -16.679688 C 1.226562 -16.101562 0.574219 -15.644531 -0.152344 -15.257812 C -0.535156 -15.066406 -0.765625 -14.570312 -0.652344 -14.148438 C -0.535156 -13.6875 -0.113281 -13.378906 0.34375 -13.378906 Z M 0.34375 -13.378906 "/></g></g></g><g fill="rgb(55.288696%, 40.779114%, 32.159424%)" fill-opacity="1"><g transform="translate(174.047852, 201.285779)"><g><path d="M 33.507812 -9.546875 C 33.277344 -9.699219 33.050781 -9.816406 32.78125 -9.816406 C 32.511719 -9.777344 32.242188 -9.660156 32.089844 -9.46875 C 31.976562 -9.394531 23.539062 -0.382812 16.21875 -3.335938 C 14.644531 -4.179688 13.378906 -5.445312 12.5 -7.015625 C 12.191406 -7.515625 11.808594 -8.011719 11.347656 -8.472656 C 10.851562 -9.085938 10.082031 -9.429688 9.277344 -9.46875 C 7.324219 -9.625 4.945312 -8.320312 2.109375 -5.636719 C 2.03125 -5.558594 1.917969 -5.519531 1.800781 -5.597656 C 1.6875 -5.636719 1.609375 -5.789062 1.648438 -5.90625 L 2.492188 -9.660156 C 2.644531 -10.199219 2.300781 -10.773438 1.761719 -10.886719 C 1.226562 -11.003906 0.691406 -10.660156 0.535156 -10.121094 L -1.378906 -1.726562 C -1.496094 -1.265625 -1.265625 -0.804688 -0.84375 -0.613281 C -0.421875 -0.382812 0.078125 -0.5 0.382812 -0.84375 C 5.519531 -6.863281 8.128906 -7.4375 9.046875 -7.476562 C 9.96875 -7.515625 10.542969 -6.324219 10.851562 -5.867188 C 11.921875 -3.988281 13.535156 -2.453125 15.449219 -1.496094 C 24.039062 1.992188 33.164062 -7.707031 33.546875 -8.128906 C 33.929688 -8.511719 33.890625 -9.164062 33.507812 -9.546875 Z M 33.507812 -9.546875 "/></g></g></g><g fill="rgb(55.288696%, 40.779114%, 32.159424%)" fill-opacity="1"><g transform="translate(205.978399, 201.285779)"><g/></g></g><g fill="rgb(55.288696%, 40.779114%, 32.159424%)" fill-opacity="1"><g transform="translate(220.237897, 201.285779)"><g><path d="M 26.300781 -10.621094 C 26.109375 -10.8125 25.878906 -10.886719 25.609375 -10.886719 C 25.34375 -10.886719 25.074219 -10.8125 24.882812 -10.621094 C 21.203125 -7.132812 16.679688 -4.675781 11.730469 -3.488281 C 11.539062 -3.414062 11.308594 -3.488281 11.195312 -3.640625 C 11.082031 -3.835938 11.042969 -4.027344 11.15625 -4.21875 C 11.847656 -5.558594 11.695312 -7.167969 10.8125 -8.394531 C 10.273438 -9.125 9.585938 -9.738281 8.78125 -10.199219 C 7.707031 -10.925781 6.519531 -11.769531 6.480469 -12.652344 C 6.519531 -13.152344 6.710938 -13.609375 7.054688 -13.992188 L 9.125 -15.949219 C 9.507812 -16.332031 9.546875 -16.945312 9.203125 -17.328125 C 8.855469 -17.75 8.28125 -17.828125 7.820312 -17.484375 C 7.015625 -16.871094 6.25 -16.179688 5.597656 -15.375 L -0.308594 -9.851562 C -0.574219 -9.625 -0.691406 -9.238281 -0.613281 -8.894531 C -0.535156 -8.511719 -0.269531 -8.242188 0.078125 -8.128906 C 0.421875 -8.050781 0.804688 -8.128906 1.074219 -8.394531 L 3.988281 -11.117188 C 4.140625 -11.273438 4.332031 -11.308594 4.523438 -11.308594 C 4.714844 -11.273438 4.871094 -11.15625 4.945312 -11.003906 C 5.675781 -10.007812 6.59375 -9.164062 7.628906 -8.550781 C 8.203125 -8.203125 8.703125 -7.820312 9.125 -7.324219 C 9.507812 -6.902344 9.699219 -6.324219 9.585938 -5.75 C 9.46875 -5.175781 9.125 -4.675781 8.625 -4.410156 C 6.171875 -3.027344 3.066406 -3.679688 1.378906 -5.941406 C 1.113281 -6.363281 0.5 -6.519531 0.0390625 -6.210938 C -0.421875 -5.941406 -0.574219 -5.367188 -0.308594 -4.871094 C 0.957031 -2.683594 3.21875 -1.265625 5.75 -1.074219 C 6.402344 -0.957031 7.015625 -0.921875 7.667969 -0.921875 C 14.148438 -0.921875 22.121094 -4.984375 26.300781 -9.203125 C 26.683594 -9.585938 26.683594 -10.238281 26.300781 -10.621094 Z M 26.300781 -10.621094 "/></g></g></g><g fill="rgb(55.288696%, 40.779114%, 32.159424%)" fill-opacity="1"><g transform="translate(245.00037, 201.285779)"><g><path d="M 26.300781 -10.429688 C 25.917969 -10.8125 25.265625 -10.8125 24.882812 -10.390625 C 24.804688 -10.3125 14.414062 0.152344 7.515625 -2.453125 C 4.449219 -3.640625 3.144531 -7.207031 2.644531 -10.734375 C 3.335938 -12.421875 4.484375 -15.222656 5.558594 -18.363281 C 5.675781 -18.75 5.789062 -18.785156 6.25 -18.824219 C 11.425781 -19.207031 16.5625 -19.398438 19.589844 -19.398438 C 20.167969 -19.398438 20.589844 -19.859375 20.589844 -20.398438 C 20.589844 -20.972656 20.167969 -21.394531 19.589844 -21.394531 C 16.679688 -21.394531 11.886719 -21.164062 6.976562 -20.894531 C 6.785156 -20.855469 6.441406 -20.972656 6.710938 -21.660156 C 8.550781 -26.914062 9.851562 -32.242188 9.046875 -33.855469 C 8.242188 -35.464844 7.167969 -35.503906 6.632812 -35.386719 C 3.796875 -34.851562 1.726562 -27.488281 0.804688 -21.46875 C 0.726562 -20.933594 0.460938 -20.472656 -0.0390625 -20.433594 C -6.058594 -19.976562 -11.003906 -19.628906 -11.082031 -19.628906 C -11.65625 -19.589844 -12.078125 -19.132812 -12.039062 -18.554688 C -12.039062 -18.019531 -11.578125 -17.558594 -11.003906 -17.597656 L -10.925781 -17.597656 C -10.8125 -17.597656 -6.171875 -17.941406 -0.382812 -18.363281 C -0.191406 -18.402344 0 -18.363281 0.152344 -18.210938 C 0.308594 -18.097656 0.421875 -17.90625 0.421875 -17.714844 C -0.152344 -8.589844 2.148438 -2.339844 6.785156 -0.574219 C 7.78125 -0.230469 8.816406 -0.0390625 9.890625 -0.0390625 C 17.484375 -0.0390625 25.917969 -8.589844 26.339844 -8.972656 C 26.53125 -9.164062 26.609375 -9.429688 26.609375 -9.699219 C 26.609375 -9.96875 26.492188 -10.238281 26.300781 -10.429688 Z M 2.835938 -21.546875 C 3.71875 -27.375 5.484375 -31.976562 6.519531 -33.164062 C 6.632812 -33.242188 6.785156 -33.277344 6.941406 -33.242188 C 7.054688 -33.203125 7.167969 -33.125 7.246094 -32.972656 C 7.707031 -31.976562 6.402344 -27.105469 4.449219 -21.316406 C 4.371094 -20.972656 4.101562 -20.703125 3.71875 -20.664062 C 3.527344 -20.625 3.335938 -20.625 3.105469 -20.625 C 2.722656 -20.625 2.796875 -21.242188 2.835938 -21.507812 Z M 2.378906 -15.527344 C 1.992188 -15.527344 2.148438 -18.210938 2.492188 -18.59375 C 2.796875 -18.785156 3.183594 -18.824219 3.488281 -18.632812 C 3.835938 -18.328125 2.796875 -15.527344 2.378906 -15.527344 Z M 2.378906 -15.527344 "/></g></g></g><g fill="rgb(55.288696%, 40.779114%, 32.159424%)" fill-opacity="1"><g transform="translate(269.494524, 201.285779)"><g><path d="M 27.949219 -10.886719 C 27.757812 -11.082031 27.527344 -11.15625 27.257812 -11.15625 C 26.992188 -11.15625 26.722656 -11.082031 26.53125 -10.886719 C 21.929688 -6.289062 15.414062 -4.179688 9.011719 -5.253906 C 8.511719 -5.367188 8.167969 -5.828125 8.242188 -6.324219 C 8.550781 -8.167969 8.394531 -10.046875 7.324219 -10.660156 C 6.632812 -11.042969 5.597656 -11.082031 4.371094 -9.011719 C 3.910156 -8.320312 3.757812 -7.476562 3.910156 -6.671875 C 4.101562 -5.867188 4.601562 -5.136719 5.289062 -4.714844 C 5.710938 -4.371094 5.214844 -3.796875 4.945312 -3.527344 C 4.21875 -2.644531 2.953125 -2.492188 2.070312 -3.183594 C 0.957031 -3.679688 0.460938 -4.90625 0.882812 -6.019531 C 1.378906 -8.050781 3.375 -9.816406 4.101562 -9.816406 C 4.640625 -9.816406 5.097656 -10.273438 5.097656 -10.8125 C 5.136719 -11.347656 4.675781 -11.808594 4.140625 -11.847656 L 4.101562 -11.847656 C 2.183594 -11.847656 -0.382812 -9.238281 -1.074219 -6.519531 C -1.726562 -4.523438 -0.804688 -2.339844 1.113281 -1.417969 C 1.839844 -0.996094 2.644531 -0.804688 3.488281 -0.765625 C 5.136719 -0.84375 6.59375 -1.839844 7.285156 -3.375 C 7.359375 -3.488281 7.554688 -3.566406 7.707031 -3.527344 C 12.574219 -2.070312 21.46875 -2.992188 27.949219 -9.429688 C 28.140625 -9.625 28.257812 -9.890625 28.257812 -10.160156 C 28.257812 -10.429688 28.140625 -10.695312 27.949219 -10.886719 Z M 6.25 -6.519531 C 5.828125 -6.902344 5.75 -7.515625 6.097656 -7.976562 C 6.210938 -8.167969 6.289062 -8.28125 6.363281 -8.394531 C 6.402344 -7.78125 6.363281 -7.132812 6.25 -6.519531 Z M 6.25 -6.519531 "/></g></g></g><g fill="rgb(55.288696%, 40.779114%, 32.159424%)" fill-opacity="1"><g transform="translate(295.981919, 201.285779)"><g><path d="M 33.050781 -10.082031 C 32.855469 -10.273438 32.628906 -10.390625 32.359375 -10.390625 C 32.089844 -10.390625 31.820312 -10.273438 31.628906 -10.082031 C 24.996094 -3.605469 13.226562 -2.222656 10.695312 -3.71875 C 8.972656 -4.714844 9.164062 -5.90625 10.390625 -8.28125 C 10.964844 -9.429688 11.617188 -10.773438 10.503906 -11.578125 C 9.46875 -12.34375 8.472656 -11.847656 7.589844 -11.386719 C 6.324219 -10.660156 4.90625 -10.273438 3.414062 -10.273438 C 3.066406 -10.273438 2.761719 -10.886719 2.835938 -11.117188 C 4.984375 -15.835938 4.027344 -16.714844 3.679688 -17.0625 C 3.105469 -17.636719 2.222656 -17.597656 1.148438 -16.945312 C -0.613281 -15.679688 -1.378906 -13.417969 -0.765625 -11.308594 C -0.613281 -10.734375 -0.34375 -10.199219 0.0390625 -9.738281 C 0 -9.316406 0.191406 -8.933594 0.574219 -8.742188 C 0.804688 -8.625 1.074219 -8.625 1.34375 -8.703125 C 1.992188 -8.394531 2.722656 -8.242188 3.449219 -8.242188 C 5.023438 -8.203125 6.554688 -8.550781 7.9375 -9.316406 C 8.472656 -9.585938 8.664062 -9.355469 8.589844 -9.203125 C 7.667969 -7.398438 6.019531 -4.101562 9.699219 -1.957031 C 11.003906 -1.34375 12.460938 -1.074219 13.917969 -1.1875 C 19.285156 -1.1875 27.71875 -3.488281 33.011719 -8.664062 C 33.203125 -8.816406 33.316406 -9.085938 33.316406 -9.355469 C 33.355469 -9.625 33.242188 -9.890625 33.050781 -10.082031 Z M 1.113281 -12.191406 C 0.882812 -13.304688 1.265625 -14.453125 2.148438 -15.183594 C 1.878906 -14.148438 1.535156 -13.152344 1.113281 -12.152344 Z M 1.113281 -12.191406 "/></g></g></g><g fill="rgb(55.288696%, 40.779114%, 32.159424%)" fill-opacity="1"><g transform="translate(327.414144, 201.285779)"><g><path d="M 32.167969 -9.851562 C 31.976562 -10.046875 31.746094 -10.199219 31.476562 -10.199219 C 31.207031 -10.238281 30.941406 -10.160156 30.75 -10.007812 C 30.59375 -9.890625 15.835938 1.839844 3.527344 -3.21875 C 1.035156 -4.253906 0.921875 -5.597656 0.996094 -6.324219 C 0.996094 -6.441406 1.035156 -6.554688 1.148438 -6.632812 C 1.226562 -6.710938 1.378906 -6.710938 1.496094 -6.671875 C 3.988281 -6.519531 6.480469 -7.167969 8.625 -8.511719 C 10.46875 -9.699219 10.773438 -11.003906 10.660156 -11.847656 C 10.582031 -13.226562 9.46875 -14.339844 8.050781 -14.378906 C 5.023438 -14.53125 -0.0390625 -10.925781 -0.882812 -7.09375 C -1.226562 -5.675781 -1.1875 -2.992188 2.761719 -1.378906 C 5.175781 -0.382812 7.707031 0.078125 10.273438 0.078125 C 21.277344 0.078125 31.476562 -8.011719 32.015625 -8.433594 C 32.207031 -8.589844 32.359375 -8.855469 32.359375 -9.085938 C 32.398438 -9.355469 32.320312 -9.625 32.167969 -9.851562 Z M 2.378906 -9.011719 C 3.871094 -11.082031 6.363281 -12.460938 7.9375 -12.34375 C 8.359375 -12.34375 8.589844 -12.191406 8.664062 -11.617188 C 8.703125 -11.234375 8.28125 -10.695312 7.515625 -10.199219 C 5.941406 -9.164062 1.226562 -7.476562 2.378906 -9.011719 Z M 2.378906 -9.011719 "/></g></g></g></svg>