<svg xmlns="http://www.w3.org/2000/svg" xmlns:xlink="http://www.w3.org/1999/xlink" width="1000" zoomAndPan="magnify" viewBox="0 0 750 149.999998" height="200" preserveAspectRatio="xMidYMid meet" version="1.0"><defs><g/></defs><g fill="rgb(55.288696%, 40.779114%, 32.159424%)" fill-opacity="1"><g transform="translate(7.535162, 96.474972)"><g><path d="M 106.585938 -24.933594 C 110.382812 -31.371094 112.859375 -29.804688 118.226562 -28.566406 C 124.664062 -26.089844 130.691406 -23.777344 136.140625 -21.796875 C 137.875 -21.136719 139.03125 -19.730469 139.277344 -17.914062 C 140.683594 -7.761719 142.828125 -2.394531 146.132812 -1.320312 C 146.710938 -1.074219 147.285156 -1.15625 147.78125 -1.402344 C 148.277344 -1.652344 148.691406 -2.148438 148.855469 -2.640625 C 149.1875 -3.796875 148.609375 -5.035156 147.453125 -5.449219 C 146.046875 -5.945312 144.976562 -9.246094 144.148438 -14.28125 C 143.902344 -15.355469 144.316406 -16.429688 145.140625 -17.089844 C 145.882812 -17.75 147.039062 -18 148.03125 -17.667969 C 153.644531 -15.605469 159.589844 -14.367188 165.617188 -14.035156 C 166.109375 -14.035156 166.6875 -14.28125 167.101562 -14.695312 C 167.515625 -15.109375 167.679688 -15.6875 167.679688 -16.265625 C 167.679688 -16.84375 167.433594 -17.421875 167.019531 -17.75 C 166.605469 -18.164062 166.027344 -18.410156 165.449219 -18.410156 C 158.761719 -18.90625 152.242188 -20.476562 145.964844 -22.953125 C 144.148438 -23.53125 142.828125 -25.179688 142.664062 -27.078125 C 141.34375 -44.335938 141.175781 -67.535156 141.09375 -80.496094 C 141.011719 -98.578125 140.847656 -105.59375 140.023438 -107.574219 C 139.691406 -108.484375 138.867188 -109.0625 137.957031 -108.980469 C 136.96875 -108.898438 136.222656 -108.234375 135.976562 -107.328125 C 131.105469 -89.742188 125.078125 -72.488281 117.894531 -55.726562 C 115.5 -50.277344 113.191406 -45.324219 110.796875 -40.703125 C 109.722656 -38.554688 107.082031 -37.566406 104.851562 -38.390625 C 77.773438 -48.792969 46.8125 -59.9375 23.117188 -61.753906 C 13.953125 -62.414062 8.007812 -60.765625 5.449219 -56.882812 C 3.300781 -53.582031 3.714844 -49.207031 6.605469 -43.839844 C 15.6875 -27.246094 50.691406 -0.824219 75.210938 -0.824219 C 86.769531 -0.824219 97.421875 -10.980469 106.585938 -24.933594 Z M 19.070312 -57.542969 C 20.226562 -57.542969 21.464844 -57.542969 22.785156 -57.460938 C 45.324219 -55.726562 74.964844 -45.242188 101.21875 -35.171875 C 102.539062 -34.675781 103.613281 -33.519531 104.027344 -32.199219 C 104.519531 -30.792969 104.273438 -29.308594 103.53125 -28.070312 C 93.871094 -12.960938 84.292969 -5.203125 75.210938 -5.203125 C 54.078125 -5.203125 19.730469 -28.8125 10.402344 -45.902344 C 9 -48.546875 7.59375 -52.179688 9.082031 -54.488281 C 10.320312 -56.472656 13.871094 -57.542969 19.070312 -57.542969 Z M 135.066406 -89.246094 C 135.644531 -90.980469 136.71875 -90.652344 136.71875 -88.753906 C 136.71875 -86.109375 136.71875 -83.304688 136.800781 -80.496094 C 136.882812 -60.1875 137.214844 -44.003906 137.957031 -31.703125 C 138.121094 -30.300781 137.460938 -29.0625 136.390625 -28.234375 C 135.316406 -27.410156 133.914062 -27.246094 132.675781 -27.738281 C 127.472656 -29.722656 121.859375 -31.867188 116.078125 -34.097656 L 112.859375 -35.335938 C 121.859375 -52.589844 129.289062 -70.671875 135.066406 -89.246094 Z M 135.066406 -89.246094 "/></g></g></g><g fill="rgb(55.288696%, 40.779114%, 32.159424%)" fill-opacity="1"><g transform="translate(179.587222, 96.474972)"><g><path d="M 56.636719 -22.867188 C 56.222656 -23.28125 55.726562 -23.445312 55.148438 -23.445312 C 54.570312 -23.445312 53.996094 -23.28125 53.582031 -22.867188 C 45.65625 -15.355469 35.914062 -10.074219 25.261719 -7.511719 C 24.851562 -7.347656 24.355469 -7.511719 24.109375 -7.84375 C 23.859375 -8.257812 23.777344 -8.667969 24.023438 -9.082031 C 25.511719 -11.972656 25.179688 -15.4375 23.28125 -18.082031 C 22.125 -19.648438 20.640625 -20.96875 18.90625 -21.960938 C 16.59375 -23.53125 14.035156 -25.347656 13.953125 -27.246094 C 14.035156 -28.316406 14.449219 -29.308594 15.191406 -30.132812 L 19.648438 -34.34375 C 20.476562 -35.171875 20.558594 -36.492188 19.8125 -37.316406 C 19.070312 -38.226562 17.832031 -38.390625 16.84375 -37.648438 C 15.109375 -36.328125 13.457031 -34.839844 12.054688 -33.105469 L -0.660156 -21.21875 C -1.238281 -20.722656 -1.484375 -19.898438 -1.320312 -19.152344 C -1.15625 -18.328125 -0.578125 -17.75 0.164062 -17.503906 C 0.90625 -17.335938 1.734375 -17.503906 2.3125 -18.082031 L 8.585938 -23.941406 C 8.917969 -24.273438 9.328125 -24.355469 9.742188 -24.355469 C 10.15625 -24.273438 10.484375 -24.023438 10.648438 -23.695312 C 12.21875 -21.546875 14.199219 -19.730469 16.429688 -18.410156 C 17.667969 -17.667969 18.742188 -16.84375 19.648438 -15.769531 C 20.476562 -14.859375 20.886719 -13.621094 20.640625 -12.382812 C 20.390625 -11.144531 19.648438 -10.074219 18.574219 -9.496094 C 13.292969 -6.523438 6.605469 -7.925781 2.972656 -12.796875 C 2.394531 -13.703125 1.074219 -14.035156 0.0820312 -13.375 C -0.90625 -12.796875 -1.238281 -11.558594 -0.660156 -10.484375 C 2.0625 -5.777344 6.933594 -2.722656 12.382812 -2.3125 C 13.789062 -2.0625 15.109375 -1.980469 16.511719 -1.980469 C 30.464844 -1.980469 47.636719 -10.734375 56.636719 -19.8125 C 57.460938 -20.640625 57.460938 -22.042969 56.636719 -22.867188 Z M 56.636719 -22.867188 "/></g></g></g><g fill="rgb(55.288696%, 40.779114%, 32.159424%)" fill-opacity="1"><g transform="translate(232.92004, 96.474972)"><g><path d="M 65.140625 -19.730469 C 64.3125 -20.640625 62.992188 -20.722656 62.085938 -19.898438 C 61.921875 -19.8125 44.914062 -4.953125 32.445312 -6.933594 C 28.730469 -7.511719 25.511719 -9.742188 23.695312 -13.042969 C 22.125 -15.933594 19.238281 -17.75 16.015625 -18.082031 C 11.972656 -18.328125 7.511719 -15.933594 2.808594 -10.980469 C 2.558594 -10.734375 2.148438 -10.648438 1.816406 -10.816406 C 1.484375 -10.980469 1.320312 -11.3125 1.402344 -11.722656 C 1.652344 -13.292969 2.394531 -17.253906 2.722656 -18.742188 C 2.722656 -18.492188 3.300781 -19.648438 3.300781 -19.730469 C 10.320312 -29.308594 31.289062 -59.691406 23.117188 -69.433594 C 22.042969 -70.917969 20.0625 -71.578125 18.246094 -71.085938 C 16.59375 -70.589844 11.558594 -69.019531 3.796875 -41.445312 C 1.898438 -34.757812 0.164062 -27.574219 -1.238281 -20.804688 L -1.816406 -20.0625 C -2.394531 -19.320312 -2.394531 -18.328125 -1.898438 -17.503906 C -3.136719 -11.394531 -3.960938 -5.777344 -4.375 -1.484375 C -4.457031 -0.496094 -3.878906 0.414062 -2.972656 0.742188 C -2.0625 1.074219 -0.992188 0.742188 -0.414062 -0.0820312 C 8.007812 -12.300781 13.375 -13.871094 15.769531 -13.789062 C 17.503906 -13.621094 19.070312 -12.550781 19.898438 -10.980469 C 22.375 -6.523438 26.75 -3.386719 31.867188 -2.640625 C 46.234375 -0.414062 64.148438 -16.015625 64.976562 -16.675781 C 65.800781 -17.503906 65.882812 -18.824219 65.140625 -19.730469 Z M 19.484375 -66.957031 C 19.648438 -66.957031 19.730469 -66.707031 19.8125 -66.625 C 23.777344 -62.167969 7.347656 -28.980469 5.285156 -30.300781 C 3.300781 -31.539062 16.015625 -66.957031 19.484375 -66.957031 Z M 19.484375 -66.957031 "/></g></g></g><g fill="rgb(55.288696%, 40.779114%, 32.159424%)" fill-opacity="1"><g transform="translate(295.334328, 96.474972)"><g><path d="M 53.5 -22.292969 C 52.589844 -23.117188 51.269531 -23.117188 50.445312 -22.207031 C 50.113281 -21.960938 23.363281 5.285156 5.613281 -7.679688 C 0.164062 -11.640625 5.449219 -21.960938 5.53125 -22.042969 C 6.027344 -23.117188 5.613281 -24.355469 4.539062 -24.933594 C 3.46875 -25.429688 2.230469 -25.097656 1.652344 -24.023438 C 1.320312 -23.53125 -5.367188 -10.402344 3.054688 -4.210938 C 6.933594 -1.320312 11.722656 0.246094 16.59375 0.164062 C 34.425781 0.164062 52.507812 -18.246094 53.5 -19.238281 C 53.910156 -19.648438 54.160156 -20.144531 54.160156 -20.722656 C 54.078125 -21.300781 53.910156 -21.878906 53.5 -22.292969 Z M 0.742188 -28.8125 C 1.074219 -28.8125 1.402344 -28.894531 1.734375 -29.0625 C 3.714844 -30.050781 5.449219 -31.371094 7.019531 -32.941406 C 7.84375 -33.847656 7.761719 -35.171875 6.933594 -35.996094 C 6.027344 -36.820312 4.707031 -36.820312 3.878906 -35.914062 C 2.640625 -34.675781 1.238281 -33.683594 -0.332031 -32.859375 C -1.15625 -32.445312 -1.652344 -31.371094 -1.402344 -30.464844 C -1.15625 -29.472656 -0.246094 -28.8125 0.742188 -28.8125 Z M 0.742188 -28.8125 "/></g></g></g><g fill="rgb(55.288696%, 40.779114%, 32.159424%)" fill-opacity="1"><g transform="translate(346.025289, 96.474972)"><g><path d="M 72.15625 -20.558594 C 71.660156 -20.886719 71.167969 -21.136719 70.589844 -21.136719 C 70.011719 -21.054688 69.433594 -20.804688 69.101562 -20.390625 C 68.855469 -20.226562 50.691406 -0.824219 34.921875 -7.183594 C 31.539062 -9 28.8125 -11.722656 26.914062 -15.109375 C 26.253906 -16.183594 25.429688 -17.253906 24.4375 -18.246094 C 23.363281 -19.566406 21.714844 -20.308594 19.980469 -20.390625 C 15.769531 -20.722656 10.648438 -17.914062 4.539062 -12.136719 C 4.375 -11.972656 4.128906 -11.886719 3.878906 -12.054688 C 3.632812 -12.136719 3.46875 -12.464844 3.550781 -12.714844 L 5.367188 -20.804688 C 5.695312 -21.960938 4.953125 -23.199219 3.796875 -23.445312 C 2.640625 -23.695312 1.484375 -22.953125 1.15625 -21.796875 L -2.972656 -3.714844 C -3.21875 -2.722656 -2.722656 -1.734375 -1.816406 -1.320312 C -0.90625 -0.824219 0.164062 -1.074219 0.824219 -1.816406 C 11.886719 -14.777344 17.503906 -16.015625 19.484375 -16.097656 C 21.464844 -16.183594 22.703125 -13.621094 23.363281 -12.632812 C 25.675781 -8.585938 29.144531 -5.285156 33.273438 -3.21875 C 51.765625 4.292969 71.414062 -16.59375 72.238281 -17.503906 C 73.066406 -18.328125 72.984375 -19.730469 72.15625 -20.558594 Z M 72.15625 -20.558594 "/></g></g></g><g fill="rgb(55.288696%, 40.779114%, 32.159424%)" fill-opacity="1"><g transform="translate(414.796586, 96.474972)"><g/></g></g><g fill="rgb(55.288696%, 40.779114%, 32.159424%)" fill-opacity="1"><g transform="translate(445.508361, 96.474972)"><g><path d="M 56.636719 -22.867188 C 56.222656 -23.28125 55.726562 -23.445312 55.148438 -23.445312 C 54.570312 -23.445312 53.996094 -23.28125 53.582031 -22.867188 C 45.65625 -15.355469 35.914062 -10.074219 25.261719 -7.511719 C 24.851562 -7.347656 24.355469 -7.511719 24.109375 -7.84375 C 23.859375 -8.257812 23.777344 -8.667969 24.023438 -9.082031 C 25.511719 -11.972656 25.179688 -15.4375 23.28125 -18.082031 C 22.125 -19.648438 20.640625 -20.96875 18.90625 -21.960938 C 16.59375 -23.53125 14.035156 -25.347656 13.953125 -27.246094 C 14.035156 -28.316406 14.449219 -29.308594 15.191406 -30.132812 L 19.648438 -34.34375 C 20.476562 -35.171875 20.558594 -36.492188 19.8125 -37.316406 C 19.070312 -38.226562 17.832031 -38.390625 16.84375 -37.648438 C 15.109375 -36.328125 13.457031 -34.839844 12.054688 -33.105469 L -0.660156 -21.21875 C -1.238281 -20.722656 -1.484375 -19.898438 -1.320312 -19.152344 C -1.15625 -18.328125 -0.578125 -17.75 0.164062 -17.503906 C 0.90625 -17.335938 1.734375 -17.503906 2.3125 -18.082031 L 8.585938 -23.941406 C 8.917969 -24.273438 9.328125 -24.355469 9.742188 -24.355469 C 10.15625 -24.273438 10.484375 -24.023438 10.648438 -23.695312 C 12.21875 -21.546875 14.199219 -19.730469 16.429688 -18.410156 C 17.667969 -17.667969 18.742188 -16.84375 19.648438 -15.769531 C 20.476562 -14.859375 20.886719 -13.621094 20.640625 -12.382812 C 20.390625 -11.144531 19.648438 -10.074219 18.574219 -9.496094 C 13.292969 -6.523438 6.605469 -7.925781 2.972656 -12.796875 C 2.394531 -13.703125 1.074219 -14.035156 0.0820312 -13.375 C -0.90625 -12.796875 -1.238281 -11.558594 -0.660156 -10.484375 C 2.0625 -5.777344 6.933594 -2.722656 12.382812 -2.3125 C 13.789062 -2.0625 15.109375 -1.980469 16.511719 -1.980469 C 30.464844 -1.980469 47.636719 -10.734375 56.636719 -19.8125 C 57.460938 -20.640625 57.460938 -22.042969 56.636719 -22.867188 Z M 56.636719 -22.867188 "/></g></g></g><g fill="rgb(55.288696%, 40.779114%, 32.159424%)" fill-opacity="1"><g transform="translate(498.841167, 96.474972)"><g><path d="M 56.636719 -22.457031 C 55.8125 -23.28125 54.40625 -23.28125 53.582031 -22.375 C 53.417969 -22.207031 31.042969 0.332031 16.183594 -5.285156 C 9.578125 -7.84375 6.769531 -15.519531 5.695312 -23.117188 C 7.183594 -26.75 9.660156 -32.777344 11.972656 -39.546875 C 12.21875 -40.371094 12.464844 -40.453125 13.457031 -40.535156 C 24.601562 -41.363281 35.664062 -41.773438 42.1875 -41.773438 C 43.425781 -41.773438 44.335938 -42.765625 44.335938 -43.921875 C 44.335938 -45.160156 43.425781 -46.070312 42.1875 -46.070312 C 35.914062 -46.070312 25.59375 -45.574219 15.027344 -44.996094 C 14.613281 -44.914062 13.871094 -45.160156 14.449219 -46.644531 C 18.410156 -57.957031 21.21875 -69.433594 19.484375 -72.902344 C 17.75 -76.367188 15.4375 -76.449219 14.28125 -76.203125 C 8.171875 -75.046875 3.714844 -59.195312 1.734375 -46.234375 C 1.570312 -45.078125 0.992188 -44.085938 -0.0820312 -44.003906 C -13.042969 -43.015625 -23.695312 -42.269531 -23.859375 -42.269531 C -25.097656 -42.1875 -26.007812 -41.199219 -25.925781 -39.960938 C -25.925781 -38.804688 -24.933594 -37.8125 -23.695312 -37.894531 L -23.53125 -37.894531 C -23.28125 -37.894531 -13.292969 -38.636719 -0.824219 -39.546875 C -0.414062 -39.628906 0 -39.546875 0.332031 -39.214844 C 0.660156 -38.96875 0.90625 -38.554688 0.90625 -38.144531 C -0.332031 -18.492188 4.625 -5.035156 14.613281 -1.238281 C 16.757812 -0.496094 18.988281 -0.0820312 21.300781 -0.0820312 C 37.648438 -0.0820312 55.8125 -18.492188 56.71875 -19.320312 C 57.132812 -19.730469 57.296875 -20.308594 57.296875 -20.886719 C 57.296875 -21.464844 57.050781 -22.042969 56.636719 -22.457031 Z M 6.109375 -46.398438 C 8.007812 -58.949219 11.804688 -68.855469 14.035156 -71.414062 C 14.28125 -71.578125 14.613281 -71.660156 14.945312 -71.578125 C 15.191406 -71.496094 15.4375 -71.332031 15.605469 -71 C 16.59375 -68.855469 13.789062 -58.371094 9.578125 -45.902344 C 9.410156 -45.160156 8.832031 -44.582031 8.007812 -44.5 C 7.59375 -44.417969 7.183594 -44.417969 6.6875 -44.417969 C 5.863281 -44.417969 6.027344 -45.738281 6.109375 -46.316406 Z M 5.117188 -33.4375 C 4.292969 -33.4375 4.625 -39.214844 5.367188 -40.042969 C 6.027344 -40.453125 6.851562 -40.535156 7.511719 -40.125 C 8.257812 -39.464844 6.027344 -33.4375 5.117188 -33.4375 Z M 5.117188 -33.4375 "/></g></g></g><g fill="rgb(55.288696%, 40.779114%, 32.159424%)" fill-opacity="1"><g transform="translate(551.596093, 96.474972)"><g><path d="M 60.1875 -23.445312 C 59.773438 -23.859375 59.277344 -24.023438 58.699219 -24.023438 C 58.121094 -24.023438 57.542969 -23.859375 57.132812 -23.445312 C 47.222656 -13.539062 33.1875 -9 19.402344 -11.3125 C 18.328125 -11.558594 17.585938 -12.550781 17.75 -13.621094 C 18.410156 -17.585938 18.082031 -21.628906 15.769531 -22.953125 C 14.28125 -23.777344 12.054688 -23.859375 9.410156 -19.402344 C 8.421875 -17.914062 8.089844 -16.097656 8.421875 -14.367188 C 8.832031 -12.632812 9.90625 -11.0625 11.394531 -10.15625 C 12.300781 -9.410156 11.226562 -8.171875 10.648438 -7.59375 C 9.082031 -5.695312 6.355469 -5.367188 4.457031 -6.851562 C 2.0625 -7.925781 0.992188 -10.566406 1.898438 -12.960938 C 2.972656 -17.335938 7.265625 -21.136719 8.832031 -21.136719 C 9.988281 -21.136719 10.980469 -22.125 10.980469 -23.28125 C 11.0625 -24.4375 10.074219 -25.429688 8.917969 -25.511719 L 8.832031 -25.511719 C 4.707031 -25.511719 -0.824219 -19.898438 -2.3125 -14.035156 C -3.714844 -9.742188 -1.734375 -5.035156 2.394531 -3.054688 C 3.960938 -2.148438 5.695312 -1.734375 7.511719 -1.652344 C 11.0625 -1.816406 14.199219 -3.960938 15.6875 -7.265625 C 15.851562 -7.511719 16.265625 -7.679688 16.59375 -7.59375 C 27.078125 -4.457031 46.234375 -6.441406 60.1875 -20.308594 C 60.597656 -20.722656 60.847656 -21.300781 60.847656 -21.878906 C 60.847656 -22.457031 60.597656 -23.035156 60.1875 -23.445312 Z M 13.457031 -14.035156 C 12.550781 -14.859375 12.382812 -16.183594 13.128906 -17.171875 C 13.375 -17.585938 13.539062 -17.832031 13.703125 -18.082031 C 13.789062 -16.757812 13.703125 -15.355469 13.457031 -14.035156 Z M 13.457031 -14.035156 "/></g></g></g><g fill="rgb(55.288696%, 40.779114%, 32.159424%)" fill-opacity="1"><g transform="translate(608.644063, 96.474972)"><g><path d="M 71.167969 -21.714844 C 70.753906 -22.125 70.257812 -22.375 69.679688 -22.375 C 69.101562 -22.375 68.523438 -22.125 68.113281 -21.714844 C 53.828125 -7.761719 28.484375 -4.789062 23.035156 -8.007812 C 19.320312 -10.15625 19.730469 -12.714844 22.375 -17.832031 C 23.613281 -20.308594 25.015625 -23.199219 22.621094 -24.933594 C 20.390625 -26.585938 18.246094 -25.511719 16.347656 -24.519531 C 13.621094 -22.953125 10.566406 -22.125 7.347656 -22.125 C 6.605469 -22.125 5.945312 -23.445312 6.109375 -23.941406 C 10.734375 -34.097656 8.667969 -35.996094 7.925781 -36.738281 C 6.6875 -37.976562 4.789062 -37.894531 2.476562 -36.492188 C -1.320312 -33.765625 -2.972656 -28.894531 -1.652344 -24.355469 C -1.320312 -23.117188 -0.742188 -21.960938 0.0820312 -20.96875 C 0 -20.0625 0.414062 -19.238281 1.238281 -18.824219 C 1.734375 -18.574219 2.3125 -18.574219 2.890625 -18.742188 C 4.292969 -18.082031 5.863281 -17.75 7.429688 -17.75 C 10.816406 -17.667969 14.117188 -18.410156 17.089844 -20.0625 C 18.246094 -20.640625 18.660156 -20.144531 18.492188 -19.8125 C 16.511719 -15.933594 12.960938 -8.832031 20.886719 -4.210938 C 23.695312 -2.890625 26.832031 -2.3125 29.96875 -2.558594 C 41.527344 -2.558594 59.691406 -7.511719 71.085938 -18.660156 C 71.496094 -18.988281 71.746094 -19.566406 71.746094 -20.144531 C 71.828125 -20.722656 71.578125 -21.300781 71.167969 -21.714844 Z M 2.394531 -26.253906 C 1.898438 -28.648438 2.722656 -31.125 4.625 -32.695312 C 4.046875 -30.464844 3.300781 -28.316406 2.394531 -26.171875 Z M 2.394531 -26.253906 "/></g></g></g><g fill="rgb(55.288696%, 40.779114%, 32.159424%)" fill-opacity="1"><g transform="translate(676.342088, 96.474972)"><g><path d="M 69.269531 -21.21875 C 68.855469 -21.628906 68.359375 -21.960938 67.78125 -21.960938 C 67.203125 -22.042969 66.625 -21.878906 66.214844 -21.546875 C 65.882812 -21.300781 34.097656 3.960938 7.59375 -6.933594 C 2.230469 -9.164062 1.980469 -12.054688 2.148438 -13.621094 C 2.148438 -13.871094 2.230469 -14.117188 2.476562 -14.28125 C 2.640625 -14.449219 2.972656 -14.449219 3.21875 -14.367188 C 8.585938 -14.035156 13.953125 -15.4375 18.574219 -18.328125 C 22.539062 -20.886719 23.199219 -23.695312 22.953125 -25.511719 C 22.785156 -28.484375 20.390625 -30.878906 17.335938 -30.960938 C 10.816406 -31.289062 -0.0820312 -23.53125 -1.898438 -15.273438 C -2.640625 -12.21875 -2.558594 -6.441406 5.945312 -2.972656 C 11.144531 -0.824219 16.59375 0.164062 22.125 0.164062 C 45.820312 0.164062 67.78125 -17.253906 68.9375 -18.164062 C 69.351562 -18.492188 69.679688 -19.070312 69.679688 -19.566406 C 69.761719 -20.144531 69.597656 -20.722656 69.269531 -21.21875 Z M 5.117188 -19.402344 C 8.339844 -23.859375 13.703125 -26.832031 17.089844 -26.585938 C 18 -26.585938 18.492188 -26.253906 18.660156 -25.015625 C 18.742188 -24.191406 17.832031 -23.035156 16.183594 -21.960938 C 12.796875 -19.730469 2.640625 -16.097656 5.117188 -19.402344 Z M 5.117188 -19.402344 "/></g></g></g></svg>