<svg xmlns="http://www.w3.org/2000/svg" viewBox="0 0 161.71 161.71"><defs><style>.cls-1{fill:#efefef;}.cls-2{fill:#d83932;}.cls-3{fill:none;stroke:#fff;stroke-linecap:round;stroke-linejoin:round;stroke-width:5.16px;}.cls-4{fill:#93d8d8;}</style></defs><title>Asset 6</title><g id="Layer_2" data-name="Layer 2"><g id="Layer_1-2" data-name="Layer 1"><circle class="cls-1" cx="80.85" cy="80.85" r="80.85"/><path class="cls-2" d="M63.24,43.34H91.08A17.46,17.46,0,0,1,108.54,60.8v61.36a0,0,0,0,1,0,0H63.24a17.46,17.46,0,0,1-17.46-17.46V60.8A17.46,17.46,0,0,1,63.24,43.34Z"/><line class="cls-3" x1="61.79" y1="72.58" x2="93.11" y2="72.58"/><line class="cls-3" x1="61.79" y1="85.97" x2="93.11" y2="85.97"/><line class="cls-3" x1="61.79" y1="99.37" x2="78" y2="99.37"/><path class="cls-4" d="M117.08,72.58h1.71a8.54,8.54,0,0,1,8.54,8.54v30.37a10.68,10.68,0,0,1-10.68,10.68h-8.11a0,0,0,0,1,0,0v-41A8.54,8.54,0,0,1,117.08,72.58Z"/></g></g></svg>