<?xml version="1.0" standalone="no"?>
<!DOCTYPE svg PUBLIC "-//W3C//DTD SVG 20010904//EN"
 "http://www.w3.org/TR/2001/REC-SVG-20010904/DTD/svg10.dtd">
<svg version="1.0" xmlns="http://www.w3.org/2000/svg"
 width="421.000000pt" height="131.000000pt" viewBox="0 0 421.000000 131.000000"
 preserveAspectRatio="xMidYMid meet">

<g transform="translate(0.000000,131.000000) scale(0.100000,-0.100000)"
fill="#000000" stroke="none">
<path d="M3093 1301 c-28 -4 -55 -10 -59 -14 -7 -6 13 -237 21 -245 2 -2 9 -1
15 3 7 5 9 25 4 61 l-6 54 33 0 c44 0 79 10 79 22 0 5 -22 8 -48 7 -59 -3 -72
4 -72 41 0 36 7 40 75 47 37 4 55 10 55 19 0 15 -11 15 -97 5z"/>
<path d="M3374 1282 c-18 -12 -126 -211 -122 -223 3 -8 9 -7 19 5 37 44 40 45
72 39 61 -11 77 -21 77 -47 0 -13 7 -29 15 -36 13 -11 15 -8 15 16 -1 59 -29
225 -40 239 -14 17 -20 18 -36 7z m26 -51 c0 -10 3 -40 7 -66 l6 -48 -38 6
c-21 3 -42 10 -46 14 -9 9 48 113 62 113 5 0 9 -8 9 -19z"/>
<path d="M3595 1175 c-40 -39 -33 -69 25 -111 51 -37 58 -51 40 -85 -14 -26
-47 -24 -95 6 -46 28 -55 30 -55 13 0 -18 92 -68 123 -68 31 0 67 46 67 84 0
21 -10 33 -45 54 -50 30 -61 51 -45 82 14 26 36 25 89 -5 27 -16 48 -22 53
-17 11 11 -89 72 -116 72 -9 0 -28 -11 -41 -25z"/>
<path d="M3797 954 c-48 -42 -87 -83 -87 -90 0 -21 8 -18 53 21 22 19 44 35
48 35 3 0 23 -21 44 -46 l38 -46 -37 -37 c-32 -33 -46 -61 -30 -61 9 0 171
144 178 157 12 26 -15 22 -49 -8 l-36 -32 -40 39 c-47 46 -49 66 -9 94 28 20
41 50 22 50 -5 0 -48 -34 -95 -76z"/>
<path d="M687 813 c-4 -3 -7 -143 -7 -310 l0 -304 78 3 77 3 3 158 c1 86 7
157 11 157 5 0 89 -115 187 -255 115 -165 185 -257 199 -261 12 -3 46 -4 76
-2 l54 3 0 405 0 405 -70 0 -70 0 -3 -258 c-2 -200 -5 -258 -15 -255 -6 3 -87
112 -180 244 -92 131 -174 247 -182 257 -11 13 -30 17 -83 17 -38 0 -72 -3
-75 -7z"/>
<path d="M1590 811 c-153 -47 -226 -212 -152 -346 36 -65 94 -101 197 -120 95
-18 125 -43 125 -104 0 -41 -25 -72 -72 -90 -27 -10 -28 -13 -28 -81 0 -63 2
-71 18 -67 9 3 33 8 53 11 101 17 179 117 179 228 0 134 -78 216 -224 237 -98
14 -126 36 -126 101 0 63 62 109 126 94 39 -9 55 -23 71 -61 13 -33 14 -33 83
-33 70 0 70 0 70 28 0 43 -44 127 -82 155 -65 50 -165 70 -238 48z"/>
<path d="M1945 808 c-3 -8 -4 -86 -3 -173 l3 -160 78 -3 77 -3 -2 173 -3 173
-73 3 c-53 2 -74 -1 -77 -10z"/>
<path d="M2417 814 c-4 -4 -7 -119 -7 -255 l0 -249 -232 -2 -233 -3 -3 -139
c-2 -96 1 -143 9 -153 9 -10 30 -13 78 -11 l66 3 3 78 3 78 152 -3 152 -3 3
-65 c2 -35 8 -70 14 -77 15 -18 122 -17 137 1 8 9 10 125 9 407 l-3 394 -70 3
c-39 1 -74 0 -78 -4z"/>
<path d="M2700 480 l0 -340 -50 0 -50 0 0 -65 c0 -79 -7 -77 190 -73 l145 3 0
65 0 65 -40 5 -40 5 -3 338 -2 337 -75 0 -75 0 0 -340z"/>
<path d="M2965 807 c-3 -7 -4 -145 -3 -307 l3 -295 78 -3 77 -3 0 166 c0 91 3
165 8 165 4 0 85 -113 181 -251 96 -139 181 -258 189 -266 10 -10 33 -13 81
-11 l66 3 0 405 0 405 -70 0 -70 0 -3 -257 c-1 -151 -6 -258 -12 -258 -5 0
-86 111 -181 246 -94 135 -178 252 -186 260 -19 18 -151 20 -158 1z"/>
<path d="M161 415 c-84 -217 -150 -399 -146 -405 9 -15 130 -13 143 3 6 7 44
107 85 223 40 115 78 209 83 209 5 0 43 -95 84 -210 41 -116 79 -216 83 -223
12 -17 136 -16 143 1 7 19 -296 797 -311 797 -6 0 -80 -178 -164 -395z"/>
<path d="M4074 754 c-7 -27 -153 -99 -183 -91 -30 8 -33 -5 -9 -43 l20 -34 14
25 c17 33 145 94 179 85 20 -5 25 -3 25 13 0 10 -9 29 -20 42 -19 24 -20 24
-26 3z"/>
<path d="M4021 545 c-81 -16 -94 -32 -85 -100 13 -98 31 -108 151 -86 105 19
117 33 107 111 -12 90 -38 102 -173 75z m134 -25 c12 -20 17 -107 6 -114 -22
-14 -159 -33 -175 -24 -21 12 -33 96 -15 113 25 25 172 45 184 25z"/>
<path d="M3955 260 c-8 -14 8 -19 100 -33 43 -7 80 -17 82 -22 2 -6 -34 -23
-79 -39 -169 -58 -170 -76 -8 -101 66 -10 123 -16 126 -12 15 14 -11 24 -91
36 -47 7 -85 16 -85 21 0 4 42 22 93 40 156 55 155 73 -10 101 -127 22 -120
22 -128 9z"/>
</g>
</svg>
